<mxfile host="app.diagrams.net" agent="Mozilla/5.0 (Windows NT 10.0; Win64; x64) AppleWebKit/537.36 (KHTML, like Gecko) Chrome/137.0.0.0 Safari/537.36 Edg/137.0.0.0" version="26.2.14">
  <diagram name="第 1 页" id="qDmHKXVLpphhp1_4Agny">
    <mxGraphModel dx="1341" dy="940" grid="1" gridSize="10" guides="1" tooltips="1" connect="1" arrows="1" fold="1" page="1" pageScale="1" pageWidth="827" pageHeight="1169" math="0" shadow="0">
      <root>
        <mxCell id="0" />
        <mxCell id="1" parent="0" />
        <mxCell id="tYCcB4Z7Fog9b6VOEBvZ-26" style="edgeStyle=orthogonalEdgeStyle;rounded=0;orthogonalLoop=1;jettySize=auto;html=1;entryX=1;entryY=0.5;entryDx=0;entryDy=0;" edge="1" parent="1" source="tYCcB4Z7Fog9b6VOEBvZ-1" target="tYCcB4Z7Fog9b6VOEBvZ-2">
          <mxGeometry relative="1" as="geometry">
            <Array as="points">
              <mxPoint x="740" y="220" />
              <mxPoint x="740" y="383" />
            </Array>
          </mxGeometry>
        </mxCell>
        <mxCell id="tYCcB4Z7Fog9b6VOEBvZ-27" style="edgeStyle=orthogonalEdgeStyle;rounded=0;orthogonalLoop=1;jettySize=auto;html=1;entryX=1;entryY=0.5;entryDx=0;entryDy=0;" edge="1" parent="1" source="tYCcB4Z7Fog9b6VOEBvZ-1" target="tYCcB4Z7Fog9b6VOEBvZ-3">
          <mxGeometry relative="1" as="geometry">
            <Array as="points">
              <mxPoint x="800" y="195" />
              <mxPoint x="800" y="573" />
            </Array>
          </mxGeometry>
        </mxCell>
        <mxCell id="tYCcB4Z7Fog9b6VOEBvZ-1" value="" style="rounded=0;whiteSpace=wrap;html=1;" vertex="1" parent="1">
          <mxGeometry x="210" y="110" width="440" height="170" as="geometry" />
        </mxCell>
        <mxCell id="tYCcB4Z7Fog9b6VOEBvZ-28" style="edgeStyle=orthogonalEdgeStyle;rounded=0;orthogonalLoop=1;jettySize=auto;html=1;exitX=1;exitY=0.75;exitDx=0;exitDy=0;entryX=1;entryY=0.25;entryDx=0;entryDy=0;" edge="1" parent="1" source="tYCcB4Z7Fog9b6VOEBvZ-2" target="tYCcB4Z7Fog9b6VOEBvZ-3">
          <mxGeometry relative="1" as="geometry">
            <Array as="points">
              <mxPoint x="650" y="450" />
              <mxPoint x="670" y="450" />
              <mxPoint x="670" y="531" />
            </Array>
          </mxGeometry>
        </mxCell>
        <mxCell id="tYCcB4Z7Fog9b6VOEBvZ-31" style="edgeStyle=orthogonalEdgeStyle;rounded=0;orthogonalLoop=1;jettySize=auto;html=1;exitX=0;exitY=0.75;exitDx=0;exitDy=0;entryX=0;entryY=0.5;entryDx=0;entryDy=0;" edge="1" parent="1" source="tYCcB4Z7Fog9b6VOEBvZ-2" target="tYCcB4Z7Fog9b6VOEBvZ-4">
          <mxGeometry relative="1" as="geometry" />
        </mxCell>
        <mxCell id="tYCcB4Z7Fog9b6VOEBvZ-2" value="" style="rounded=0;whiteSpace=wrap;html=1;" vertex="1" parent="1">
          <mxGeometry x="210" y="298" width="440" height="170" as="geometry" />
        </mxCell>
        <mxCell id="tYCcB4Z7Fog9b6VOEBvZ-30" style="edgeStyle=orthogonalEdgeStyle;rounded=0;orthogonalLoop=1;jettySize=auto;html=1;exitX=1;exitY=0.75;exitDx=0;exitDy=0;entryX=1;entryY=0.75;entryDx=0;entryDy=0;" edge="1" parent="1" source="tYCcB4Z7Fog9b6VOEBvZ-3" target="tYCcB4Z7Fog9b6VOEBvZ-2">
          <mxGeometry relative="1" as="geometry">
            <Array as="points">
              <mxPoint x="720" y="616" />
              <mxPoint x="720" y="426" />
            </Array>
          </mxGeometry>
        </mxCell>
        <mxCell id="tYCcB4Z7Fog9b6VOEBvZ-3" value="" style="rounded=0;whiteSpace=wrap;html=1;" vertex="1" parent="1">
          <mxGeometry x="210" y="488" width="440" height="170" as="geometry" />
        </mxCell>
        <mxCell id="tYCcB4Z7Fog9b6VOEBvZ-4" value="" style="rounded=0;whiteSpace=wrap;html=1;" vertex="1" parent="1">
          <mxGeometry x="210" y="680" width="440" height="170" as="geometry" />
        </mxCell>
        <mxCell id="tYCcB4Z7Fog9b6VOEBvZ-5" value="交互层（客户端" style="text;html=1;align=center;verticalAlign=middle;resizable=0;points=[];autosize=1;strokeColor=none;fillColor=none;fontSize=20;" vertex="1" parent="1">
          <mxGeometry x="30" y="200" width="160" height="40" as="geometry" />
        </mxCell>
        <mxCell id="tYCcB4Z7Fog9b6VOEBvZ-6" value="控制层（主控服务器" style="text;html=1;align=center;verticalAlign=middle;resizable=0;points=[];autosize=1;strokeColor=none;fillColor=none;fontSize=20;" vertex="1" parent="1">
          <mxGeometry y="363" width="200" height="40" as="geometry" />
        </mxCell>
        <mxCell id="tYCcB4Z7Fog9b6VOEBvZ-7" value="存储层（存储节点" style="text;html=1;align=center;verticalAlign=middle;resizable=0;points=[];autosize=1;strokeColor=none;fillColor=none;fontSize=20;" vertex="1" parent="1">
          <mxGeometry x="10" y="553" width="180" height="40" as="geometry" />
        </mxCell>
        <mxCell id="tYCcB4Z7Fog9b6VOEBvZ-8" value="支撑层（基础设置" style="text;html=1;align=center;verticalAlign=middle;resizable=0;points=[];autosize=1;strokeColor=none;fillColor=none;fontSize=20;" vertex="1" parent="1">
          <mxGeometry x="10" y="720" width="180" height="40" as="geometry" />
        </mxCell>
        <mxCell id="tYCcB4Z7Fog9b6VOEBvZ-9" value="性能监控（proc file" style="rounded=0;whiteSpace=wrap;html=1;" vertex="1" parent="1">
          <mxGeometry x="220" y="690" width="120" height="60" as="geometry" />
        </mxCell>
        <mxCell id="tYCcB4Z7Fog9b6VOEBvZ-10" value="日志系统（spdlog" style="rounded=0;whiteSpace=wrap;html=1;" vertex="1" parent="1">
          <mxGeometry x="370" y="690" width="120" height="60" as="geometry" />
        </mxCell>
        <mxCell id="tYCcB4Z7Fog9b6VOEBvZ-11" value="信号处理（signals" style="rounded=0;whiteSpace=wrap;html=1;" vertex="1" parent="1">
          <mxGeometry x="520" y="690" width="120" height="60" as="geometry" />
        </mxCell>
        <mxCell id="tYCcB4Z7Fog9b6VOEBvZ-12" value="配置加载（nlohmann json" style="rounded=0;whiteSpace=wrap;html=1;" vertex="1" parent="1">
          <mxGeometry x="220" y="780" width="120" height="60" as="geometry" />
        </mxCell>
        <mxCell id="tYCcB4Z7Fog9b6VOEBvZ-13" value="网络IO（asio" style="rounded=0;whiteSpace=wrap;html=1;" vertex="1" parent="1">
          <mxGeometry x="370" y="780" width="120" height="60" as="geometry" />
        </mxCell>
        <mxCell id="tYCcB4Z7Fog9b6VOEBvZ-14" value="协议解析（protobuf+自定义协议" style="rounded=0;whiteSpace=wrap;html=1;" vertex="1" parent="1">
          <mxGeometry x="520" y="780" width="120" height="60" as="geometry" />
        </mxCell>
        <mxCell id="tYCcB4Z7Fog9b6VOEBvZ-15" value="负载均衡" style="rounded=0;whiteSpace=wrap;html=1;" vertex="1" parent="1">
          <mxGeometry x="230" y="353" width="120" height="60" as="geometry" />
        </mxCell>
        <mxCell id="tYCcB4Z7Fog9b6VOEBvZ-16" value="节点注册" style="rounded=0;whiteSpace=wrap;html=1;" vertex="1" parent="1">
          <mxGeometry x="370" y="353" width="120" height="60" as="geometry" />
        </mxCell>
        <mxCell id="tYCcB4Z7Fog9b6VOEBvZ-17" value="命令行工具" style="rounded=0;whiteSpace=wrap;html=1;" vertex="1" parent="1">
          <mxGeometry x="230" y="160" width="120" height="60" as="geometry" />
        </mxCell>
        <mxCell id="tYCcB4Z7Fog9b6VOEBvZ-18" value="WEB 可视化" style="rounded=0;whiteSpace=wrap;html=1;" vertex="1" parent="1">
          <mxGeometry x="370" y="160" width="120" height="60" as="geometry" />
        </mxCell>
        <mxCell id="tYCcB4Z7Fog9b6VOEBvZ-19" value="接口" style="rounded=0;whiteSpace=wrap;html=1;" vertex="1" parent="1">
          <mxGeometry x="510" y="160" width="120" height="60" as="geometry" />
        </mxCell>
        <mxCell id="tYCcB4Z7Fog9b6VOEBvZ-20" value="监控统计" style="rounded=0;whiteSpace=wrap;html=1;" vertex="1" parent="1">
          <mxGeometry x="510" y="353" width="120" height="60" as="geometry" />
        </mxCell>
        <mxCell id="tYCcB4Z7Fog9b6VOEBvZ-21" value="监控接口" style="rounded=0;whiteSpace=wrap;html=1;" vertex="1" parent="1">
          <mxGeometry x="510" y="510" width="120" height="60" as="geometry" />
        </mxCell>
        <mxCell id="tYCcB4Z7Fog9b6VOEBvZ-22" value="数据同步" style="rounded=0;whiteSpace=wrap;html=1;" vertex="1" parent="1">
          <mxGeometry x="230" y="510" width="120" height="60" as="geometry" />
        </mxCell>
        <mxCell id="tYCcB4Z7Fog9b6VOEBvZ-23" value="数据迁移" style="rounded=0;whiteSpace=wrap;html=1;" vertex="1" parent="1">
          <mxGeometry x="370" y="510" width="120" height="60" as="geometry" />
        </mxCell>
        <mxCell id="tYCcB4Z7Fog9b6VOEBvZ-24" value="文件管理（扁平管理" style="rounded=0;whiteSpace=wrap;html=1;" vertex="1" parent="1">
          <mxGeometry x="230" y="585" width="120" height="60" as="geometry" />
        </mxCell>
        <mxCell id="tYCcB4Z7Fog9b6VOEBvZ-25" value="零拷贝优化" style="rounded=0;whiteSpace=wrap;html=1;" vertex="1" parent="1">
          <mxGeometry x="370" y="585" width="120" height="60" as="geometry" />
        </mxCell>
        <mxCell id="tYCcB4Z7Fog9b6VOEBvZ-33" style="edgeStyle=orthogonalEdgeStyle;rounded=0;orthogonalLoop=1;jettySize=auto;html=1;exitX=0;exitY=0.75;exitDx=0;exitDy=0;entryX=-0.002;entryY=0.859;entryDx=0;entryDy=0;entryPerimeter=0;" edge="1" parent="1" source="tYCcB4Z7Fog9b6VOEBvZ-3" target="tYCcB4Z7Fog9b6VOEBvZ-4">
          <mxGeometry relative="1" as="geometry">
            <Array as="points">
              <mxPoint x="200" y="616" />
              <mxPoint x="200" y="826" />
            </Array>
          </mxGeometry>
        </mxCell>
      </root>
    </mxGraphModel>
  </diagram>
</mxfile>
